HIERARCHY
ROOT joint_Root
{
	OFFSET 0.0 0.0 0.0
	CHANNELS 6 Xposition Yposition Zposition Zrotation Xrotation Yrotation 
	JOINT Hips
	{
		OFFSET 4.5925 91.4895 -427.239
		CHANNELS 6 Xposition Yposition Zposition Zrotation Xrotation Yrotation 
		JOINT Spine
		{
			OFFSET 15.7357 0.0 0.0
			CHANNELS 6 Xposition Yposition Zposition Zrotation Xrotation Yrotation 
			JOINT Chest
			{
				OFFSET 8.98455 -0.406207 0.0
				CHANNELS 6 Xposition Yposition Zposition Zrotation Xrotation Yrotation 
				JOINT Neck
				{
					OFFSET 16.3773 0.0 0.0
					CHANNELS 6 Xposition Yposition Zposition Zrotation Xrotation Yrotation 
					JOINT Head
					{
						OFFSET 6.45672 0.0 0.0
						CHANNELS 6 Xposition Yposition Zposition Zrotation Xrotation Yrotation 
						End Site
						{
							OFFSET 0.0 0.0 0.0
						}
					}
				}
				JOINT Shoulder_L
				{
					OFFSET 12.9942 -0.242716 4.98039
					CHANNELS 6 Xposition Yposition Zposition Zrotation Xrotation Yrotation 
					JOINT UpperArm_L
					{
						OFFSET 5.34809 0.0 0.0
						CHANNELS 6 Xposition Yposition Zposition Zrotation Xrotation Yrotation 
						JOINT LowerArm_L
						{
							OFFSET 24.3286 1.87007e-05 0.0
							CHANNELS 6 Xposition Yposition Zposition Zrotation Xrotation Yrotation 
							JOINT Hand_L
							{
								OFFSET 22.2916 0.0 0.0
								CHANNELS 6 Xposition Yposition Zposition Zrotation Xrotation Yrotation 
								End Site
								{
									OFFSET 0.0 0.0 0.0
								}
							}
						}
					}
				}
				JOINT Shoulder_R
				{
					OFFSET 12.9945 -0.242716 -4.98039
					CHANNELS 6 Xposition Yposition Zposition Zrotation Xrotation Yrotation 
					JOINT UpperArm_R
					{
						OFFSET -5.34813 0.0 0.0
						CHANNELS 6 Xposition Yposition Zposition Zrotation Xrotation Yrotation 
						JOINT LowerArm_R
						{
							OFFSET -24.3289 0.000322201 0.0
							CHANNELS 6 Xposition Yposition Zposition Zrotation Xrotation Yrotation 
							JOINT Hand_R
							{
								OFFSET -22.2915 -0.000108084 0.0
								CHANNELS 6 Xposition Yposition Zposition Zrotation Xrotation Yrotation 
								End Site
								{
									OFFSET 0.0 0.0 0.0
								}
							}
						}
					}
				}
			}
		}
		JOINT UpperLeg_L
		{
			OFFSET -2.19248 -6.46944 0.0
			CHANNELS 6 Xposition Yposition Zposition Zrotation Xrotation Yrotation 
			JOINT LowerLeg_L
			{
				OFFSET 39.0811 0.0 -1.23785e-05
				CHANNELS 6 Xposition Yposition Zposition Zrotation Xrotation Yrotation 
				JOINT Foot_L
				{
					OFFSET 40.9854 0.0 -1.26872e-05
					CHANNELS 6 Xposition Yposition Zposition Zrotation Xrotation Yrotation 
					JOINT Toes_L
					{
						OFFSET 11.7543 0.0 0.0
						CHANNELS 6 Xposition Yposition Zposition Zrotation Xrotation Yrotation 
						End Site
						{
							OFFSET 0.0 0.0 0.0
						}
					}
				}
			}
		}
		JOINT UpperLeg_R
		{
			OFFSET -2.19251 6.46944 0.0
			CHANNELS 6 Xposition Yposition Zposition Zrotation Xrotation Yrotation 
			JOINT LowerLeg_R
			{
				OFFSET -39.0811 -0.00228153 -0.0401928
				CHANNELS 6 Xposition Yposition Zposition Zrotation Xrotation Yrotation 
				JOINT Foot_R
				{
					OFFSET -40.9854 0.0 0.0
					CHANNELS 6 Xposition Yposition Zposition Zrotation Xrotation Yrotation 
					JOINT Toes_R
					{
						OFFSET -11.7543 0.0 0.0
						CHANNELS 6 Xposition Yposition Zposition Zrotation Xrotation Yrotation 
						End Site
						{
							OFFSET 0.0 0.0 0.0
						}
					}
				}
			}
		}
	}
}
MOTION
Frames:	4
Frame Time:	0.0333333
0.000000 0.000000 0.000000 0.000000 0.000000 -0.000000 -2.558710 90.468300 -0.432534 89.219700 -2.239160 11.414100 15.735700 0.000005 -0.000001 85.840200 78.785700 -86.350500 8.984550 -0.406207 -0.000000 14.600600 -1.637010 -0.811494 16.377300 -0.000001 -0.000001 8.083770 -4.016160 1.197450 6.456720 -0.000001 -0.000000 -6.015270 -2.593890 -4.013930 12.994200 -0.242716 4.980390 -91.336500 6.443600 -78.255900 5.348090 -0.000007 -0.000001 -54.356700 42.574500 -27.330200 24.328600 0.000019 0.000005 6.943930 19.484000 -20.059200 22.291600 -0.000001 0.000005 10.704300 5.307570 -0.141000 12.994500 -0.242716 -4.980390 89.019000 6.532750 -81.441200 -5.348130 -0.000001 -0.000004 -69.620700 -15.521700 -63.987900 -24.328900 0.000322 -0.000009 23.890600 -10.475300 -112.316000 -22.291500 -0.000108 -0.000004 35.492400 5.253040 1.352280 -2.192480 -6.469440 -0.000000 -173.399000 -11.470600 -0.139689 39.081100 -0.000007 -0.000012 -0.213987 0.333216 32.708300 40.985400 -0.000006 -0.000013 -0.326259 5.853030 -70.778800 11.754300 -0.000000 0.000003 -0.000140 -0.001370 -16.629700 -2.192510 6.469440 -0.000001 174.187000 22.798300 -178.448000 -39.081100 -0.002282 -0.040193 -0.215411 0.350683 31.950600 -40.985400 0.000008 0.000006 4.447490 13.276500 -71.607900 -11.754300 -0.000006 -0.000006 -0.003230 -0.043180 -18.329300
0.000000 0.000000 0.000000 0.000000 0.000000 -0.000000 -2.530500 90.463500 -0.427314 89.213600 -2.448060 11.427200 15.735700 0.000005 -0.000001 85.840600 78.795200 -86.339200 8.984550 -0.406207 -0.000000 14.581800 -1.634740 -0.788621 16.377300 -0.000001 -0.000001 8.152630 -4.122060 1.235130 6.456720 -0.000001 -0.000000 -5.969860 -2.715560 -3.882860 12.994200 -0.242716 4.980390 -91.317700 6.385210 -78.313900 5.348090 -0.000007 -0.000001 -54.388000 42.553900 -27.455300 24.328600 0.000019 0.000005 6.959400 19.587400 -20.006900 22.291600 -0.000001 0.000005 10.692300 5.308340 -0.162687 12.994500 -0.242716 -4.980390 89.023600 6.500910 -81.439800 -5.348130 -0.000001 -0.000004 -67.028300 -14.844900 -63.913700 -24.328900 0.000322 -0.000009 24.035900 -10.578400 -112.374000 -22.291500 -0.000108 -0.000004 35.383200 5.259510 1.180060 -2.192480 -6.469440 -0.000000 -173.384000 -11.615300 -0.103906 39.081100 -0.000007 -0.000012 -0.212467 0.330521 32.734300 40.985400 -0.000006 -0.000013 -0.323336 5.779000 -70.811200 11.754300 -0.000000 0.000003 -0.000130 -0.001284 -16.626500 -2.192510 6.469440 -0.000001 174.222000 22.605500 -178.484000 -39.081100 -0.002282 -0.040193 -0.213304 0.346901 31.980500 -40.985400 0.000008 0.000006 4.439680 13.295700 -71.605000 -11.754300 -0.000006 -0.000006 -0.003135 -0.042121 -18.286100
0.000000 0.000000 0.000000 0.000000 0.000000 -0.000000 -2.495190 90.457900 -0.433305 89.170200 -2.582120 11.400200 15.735700 0.000005 -0.000001 85.656100 78.809300 -86.125700 8.984550 -0.406207 -0.000000 14.548700 -1.701940 -0.722506 16.377300 -0.000001 -0.000001 8.201920 -4.189230 1.342630 6.456720 -0.000001 -0.000000 -5.936280 -2.746660 -3.899080 12.994200 -0.242716 4.980390 -91.310400 6.364880 -78.341400 5.348090 -0.000007 -0.000001 -54.382400 42.555900 -27.506300 24.328600 0.000019 0.000005 6.993290 19.564600 -20.118100 22.291600 -0.000001 0.000005 10.688900 5.307510 -0.139329 12.994500 -0.242716 -4.980390 89.042000 6.389850 -81.455100 -5.348130 -0.000001 -0.000004 -64.045500 -14.008100 -63.800700 -24.328900 0.000322 -0.000009 24.228100 -10.766700 -112.544000 -22.291500 -0.000108 -0.000004 35.041800 5.256980 1.247540 -2.192480 -6.469440 -0.000000 -173.396000 -11.542300 -0.139161 39.081100 -0.000007 -0.000012 -0.214528 0.333065 32.786100 40.985400 -0.000006 -0.000013 -0.354438 5.582470 -70.857200 11.754300 -0.000000 0.000003 -0.000138 -0.001355 -16.629200 -2.192510 6.469440 -0.000001 174.252000 22.579000 -178.533000 -39.081100 -0.002282 -0.040193 -0.216350 0.351594 31.994100 -40.985400 0.000008 0.000006 4.439510 13.377400 -71.594900 -11.754300 -0.000006 -0.000006 -0.003450 -0.045594 -18.427500
0.000000 0.000000 0.000000 0.000000 0.000000 -0.000000 -2.465180 90.461900 -0.421589 89.171800 -2.765440 11.429500 15.735700 0.000005 -0.000001 85.625600 78.809800 -86.084000 8.984550 -0.406207 -0.000000 14.547000 -1.712910 -0.698557 16.377300 -0.000001 -0.000001 8.263690 -4.231830 1.427590 6.456720 -0.000001 -0.000000 -5.899850 -2.790250 -3.876410 12.994200 -0.242716 4.980390 -91.304500 6.358880 -78.381500 5.348090 -0.000007 -0.000001 -54.352100 42.530500 -27.630300 24.328600 0.000019 0.000005 6.995120 19.568600 -20.119400 22.291600 -0.000001 0.000005 10.740300 5.308180 -0.158117 12.994500 -0.242716 -4.980390 89.054000 6.317440 -81.465500 -5.348130 -0.000001 -0.000004 -60.728500 -13.069600 -63.730100 -24.328900 0.000322 -0.000009 24.427100 -10.932800 -112.664000 -22.291500 -0.000108 -0.000004 34.806500 5.264210 1.054020 -2.192480 -6.469440 -0.000000 -173.374000 -11.703300 -0.059745 39.081100 -0.000007 -0.000012 -0.213604 0.331964 32.759900 40.985400 -0.000006 -0.000013 -0.348153 5.545510 -70.863500 11.754300 -0.000000 0.000003 -0.000136 -0.001341 -16.628600 -2.192510 6.469440 -0.000001 174.257000 22.412500 -178.524000 -39.081100 -0.002282 -0.040193 -0.219206 0.356351 31.980700 -40.985400 0.000008 0.000006 4.423820 13.401200 -71.570400 -11.754300 -0.000006 -0.000006 -0.003534 -0.046507 -18.464700
